# xmcd
#
# Track frame offsets: 
#        150
#        27760
#        60786
#        89192
#        118862
#        139430
#        179161
#        206357
#        240543
#        258337
#
# Disc length: 3858 seconds
#
# Revision: 1
# Processed by: cddbd v1.5.2PL0 Copyright (c) Steve Scherf et al.
# Submitted via: ExactAudioCopy v1.2
#
DISCID=900f100a
DTITLE=Damon Fowler - Live 2015
DYEAR=2015
DGENRE=Blues
TTITLE0=Sound Of Home
TTITLE1=Don't Call Me
TTITLE2=Fruit Stand Lady
TTITLE3=Old Fools, Bar Stools, And Me
TTITLE4=Wrong Side Of the Road
TTITLE5=Sugar Lee
TTITLE6=Grit My Teeth
TTITLE7=Cypress And The Pines
TTITLE8=I Shall Not Be Moved
TTITLE9=Sugar Shack
EXTD=
EXTT0=
EXTT1=
EXTT2=
EXTT3=
EXTT4=
EXTT5=
EXTT6=
EXTT7=
EXTT8=
EXTT9=
PLAYORDER=
